<svg id="Capa_1" data-name="Capa 1" xmlns="http://www.w3.org/2000/svg" viewBox="0 0 50.09 49.85"><path d="M0,23.28a2.67,2.67,0,0,0,.16-.53A23.07,23.07,0,0,1,3.47,12.28,24,24,0,0,1,7.59,6.94,7.13,7.13,0,0,1,9.84,5.32c-.11.2-.22.4-.34.59-.58.88-1.22,1.73-1.75,2.64a18.28,18.28,0,0,0-2.28,6.83,21.75,21.75,0,0,0-.1,5.16A17.83,17.83,0,0,0,7.88,28a19.76,19.76,0,0,0,8.67,8.06,19,19,0,0,0,7.65,1.81c.84,0,1-.1,1.39-.91a9,9,0,0,0-1-9.39,14.15,14.15,0,0,0-2.07-2.17A15.47,15.47,0,0,1,18.42,6.51a13.26,13.26,0,0,1,3.43-4.27c.65-.56,1.32-1.11,2-1.66A1.92,1.92,0,0,1,25.1,0c-.14.35-.25.65-.39.94a9.54,9.54,0,0,0-.93,4.12,9.14,9.14,0,0,0,2.34,6.18,12.85,12.85,0,0,0,1.51,1.44A14.57,14.57,0,0,1,33,21.29a15,15,0,0,1-2.8,12.76,18.31,18.31,0,0,1-2.89,2.88l-1,.81a4.52,4.52,0,0,0,2-.11,18.29,18.29,0,0,0,8.33-3.4,19.41,19.41,0,0,0,8-12.77A20.33,20.33,0,0,0,41.44,6.8c-.15-.24-.31-.47-.46-.69s-.29-.41-.5-.71a6.42,6.42,0,0,1,1.81,1.3A24.63,24.63,0,0,1,50.09,25a24.62,24.62,0,0,1-5.87,15.95,24.36,24.36,0,0,1-14.39,8.44c-.87.16-1.76.22-2.64.34a3.54,3.54,0,0,0-.62.16H23.4a1.79,1.79,0,0,0-.53-.16A16.17,16.17,0,0,1,19,49.1a25.19,25.19,0,0,1-14.52-10A23.61,23.61,0,0,1,.16,26.65,3.7,3.7,0,0,0,0,26Z" fill="#d50000"/></svg>